<?xml version="1.0" standalone="no"?>
<!DOCTYPE svg PUBLIC "-//W3C//DTD SVG 20010904//EN"
 "http://www.w3.org/TR/2001/REC-SVG-20010904/DTD/svg10.dtd">
<svg version="1.0" xmlns="http://www.w3.org/2000/svg"
 width="700.000000pt" height="700.000000pt" viewBox="0 0 700.000000 700.000000"
 preserveAspectRatio="xMidYMid meet">
<metadata>
Created by potrace 1.11, written by Peter Selinger 2001-2013
</metadata>
<g transform="translate(0.000000,700.000000) scale(0.100000,-0.100000)"
fill="#000000" stroke="none">
<path d="M1077 5934 c-53 -53 -110 -164 -139 -272 -17 -61 -21 -106 -22 -222
0 -168 12 -225 78 -365 48 -100 96 -168 184 -260 l59 -61 -2 -205 c-2 -112 -6
-231 -9 -264 -3 -33 -8 -91 -11 -130 -7 -73 -41 -358 -50 -410 -22 -124 -40
-215 -61 -310 -14 -60 -27 -118 -29 -127 -42 -196 -173 -576 -288 -838 -13
-30 -13 -41 -2 -73 33 -96 114 -127 179 -69 38 34 66 93 136 288 94 260 231
653 237 682 3 12 8 22 12 22 4 0 53 -93 109 -207 115 -234 336 -667 401 -788
24 -44 60 -109 79 -145 91 -168 192 -329 248 -394 89 -103 186 -192 324 -293
47 -35 90 -67 95 -71 6 -5 60 -38 120 -73 308 -181 613 -287 965 -335 19 -3
51 -7 70 -10 65 -9 424 -12 495 -4 39 4 97 11 130 14 33 3 74 8 90 11 281 48
532 123 815 243 396 167 791 410 1210 742 85 68 157 126 160 129 3 4 36 33 75
66 170 146 234 208 231 226 -6 38 -41 125 -57 142 -19 21 -107 45 -154 42 -37
-2 -135 -14 -165 -20 -12 -2 -71 -7 -131 -11 l-109 -7 49 104 c168 352 347
916 386 1214 4 28 9 61 11 75 18 132 23 313 12 440 -10 123 -55 308 -77 318
-9 5 -45 7 -81 6 -121 -4 -325 -14 -350 -18 -14 -3 -61 -7 -105 -10 -44 -4
-93 -8 -110 -11 -16 -2 -48 -7 -70 -9 -73 -9 -190 -26 -205 -31 -8 -2 -35 -7
-60 -10 -71 -10 -255 -51 -379 -85 -440 -120 -786 -291 -1024 -508 l-48 -44
-36 61 c-109 184 -300 397 -478 532 -165 126 -335 206 -531 249 -89 19 -315
25 -394 10 -25 -4 -61 -11 -80 -14 -45 -7 -179 -48 -250 -76 -190 -75 -426
-224 -631 -400 -76 -64 -330 -317 -380 -377 l-36 -43 2 328 c2 217 -2 359 -10
421 -12 91 -12 97 11 157 53 143 67 220 67 374 0 117 -4 161 -22 225 -52 192
-171 366 -334 489 -27 20 -54 36 -62 36 -7 0 -33 -21 -58 -46z m161 -363 c65
-72 90 -152 90 -288 0 -92 -13 -187 -35 -241 -9 -22 -10 -22 -40 20 -96 134
-130 311 -98 515 l7 52 27 -16 c14 -9 36 -28 49 -42z m1924 -1025 c343 -47
673 -298 943 -716 111 -172 118 -181 146 -196 84 -43 191 19 254 146 32 63 45
77 137 137 141 92 413 213 648 290 106 34 344 101 390 110 14 2 45 9 70 14 64
15 79 18 125 25 22 3 58 9 80 14 22 4 67 11 100 15 33 4 71 8 85 10 65 8 219
17 329 19 114 2 124 1 123 -24 0 -17 -13 -180 -16 -205 -2 -16 -7 -57 -10 -90
-4 -33 -9 -71 -11 -85 -2 -14 -7 -43 -10 -65 -82 -582 -258 -1085 -486 -1389
-38 -50 -69 -97 -69 -104 0 -24 28 -67 59 -89 70 -53 225 -90 365 -88 l68 1
-35 -30 c-67 -59 -84 -73 -205 -165 -109 -82 -403 -281 -415 -281 -3 0 -34
-17 -68 -39 -109 -65 -328 -176 -459 -231 -69 -28 -138 -58 -155 -65 -84 -36
-372 -122 -485 -144 -197 -39 -229 -44 -375 -57 -99 -8 -331 -8 -405 1 -195
22 -274 37 -415 75 -354 96 -770 338 -1038 604 -53 53 -151 230 -246 446 -165
372 -372 761 -566 1062 -47 72 -85 134 -85 138 0 28 337 391 460 496 322 274
642 435 920 460 36 4 66 7 67 8 5 4 142 -2 185 -8z"/>
<path d="M2310 3814 c-77 -33 -123 -106 -123 -194 0 -183 212 -274 347 -150
140 129 48 361 -143 360 -25 -1 -62 -8 -81 -16z"/>
<path d="M2260 5611 c-116 -37 -245 -120 -368 -236 -237 -223 -350 -480 -307
-699 15 -79 40 -136 59 -137 9 -1 22 -2 29 -3 29 -4 137 27 206 61 144 69 301
190 407 313 66 77 145 230 160 312 20 110 18 231 -4 300 -1 5 -5 21 -8 37 -13
63 -79 83 -174 52z m-49 -352 c-28 -129 -156 -295 -301 -388 l-65 -42 -3 26
c-5 39 15 119 45 183 37 80 156 196 252 245 41 20 76 35 78 33 3 -3 0 -28 -6
-57z"/>
<path d="M320 5182 c-82 -6 -208 -52 -264 -96 -15 -13 -17 -23 -12 -58 11 -71
89 -208 162 -288 18 -19 43 -47 56 -61 112 -123 300 -231 463 -264 160 -33
423 2 461 60 79 121 -154 435 -443 598 -138 78 -298 119 -423 109z m174 -247
c89 -12 202 -73 281 -152 58 -58 116 -134 109 -144 -8 -14 -112 -11 -171 5
-73 20 -128 48 -195 101 -53 41 -168 169 -168 186 0 8 55 17 80 13 8 -1 37 -5
64 -9z"/>
</g>
</svg>
